<svg width="80" height="50" viewBox="0 0 80 50" fill="none" xmlns="http://www.w3.org/2000/svg">
<g clip-path="url(#clip0_185_1835)">
<rect x="10" width="60" height="50" rx="15" fill="#BDE2EA"/>
<path d="M36 25L49 33.125C49.6111 33.5069 49.9167 33.993 49.9167 34.5833C49.9167 35.1736 49.6111 35.6597 49 36.0416C48.3889 36.4236 47.6111 36.6146 46.6667 36.6146C45.7222 36.6146 44.9444 36.4236 44.3333 36.0416L29 26.4583C28.3333 26.0416 28 25.5555 28 25C28 24.4444 28.3333 23.9583 29 23.5416L44.3333 13.9583C44.9444 13.5764 45.7222 13.3854 46.6667 13.3854C47.6111 13.3854 48.3889 13.5764 49 13.9583C49.6111 14.3403 49.9167 14.8264 49.9167 15.4166C49.9167 16.0069 49.6111 16.493 49 16.875L36 25Z" fill="white"/>
</g>
<defs>
<clipPath id="clip0_185_1835">
<rect width="50" height="80" fill="white" transform="matrix(0 -1 1 0 0 50)"/>
</clipPath>
</defs>
</svg>
