<svg width="30" height="76" viewBox="0 0 30 76" fill="none" xmlns="http://www.w3.org/2000/svg">
<path d="M7.5 75.3171V49.1037H0V26.635C0 24.5754 0.735001 22.8129 2.205 21.3474C3.675 19.882 5.44 19.148 7.5 19.1455H22.5C24.5625 19.1455 26.3287 19.8795 27.7987 21.3474C29.2687 22.8154 30.0025 24.5779 30 26.635V49.1037H22.5V75.3171H7.5ZM15 15.4007C12.9375 15.4007 11.1725 14.668 9.705 13.2025C8.2375 11.7371 7.5025 9.9733 7.5 7.91118C7.5 5.85155 8.235 4.08901 9.705 2.62356C11.175 1.1581 12.94 0.424127 15 0.421631C17.0625 0.421631 18.8287 1.15561 20.2987 2.62356C21.7687 4.09151 22.5025 5.85405 22.5 7.91118C22.5 9.9708 21.7662 11.7346 20.2987 13.2025C18.8312 14.6705 17.065 15.4032 15 15.4007Z" fill="#6E6E6E"/>
</svg>
